<svg width="24" height="24" viewBox="0 0 24 24" fill="none" xmlns="http://www.w3.org/2000/svg" class="fill-slate-500 flex"><path d="M21.4891 11.2229L17.261 14.9129L18.5275 20.4067C18.5945 20.6939 18.5754 20.9945 18.4725 21.2709C18.3697 21.5472 18.1876 21.7872 17.9491 21.9606C17.7106 22.1341 17.4262 22.2334 17.1316 22.2462C16.837 22.2589 16.5451 22.1845 16.2925 22.0323L11.501 19.1261L6.71971 22.0323C6.46712 22.1845 6.17526 22.2589 5.88062 22.2462C5.58598 22.2334 5.30164 22.1341 5.06314 21.9606C4.82464 21.7872 4.64257 21.5472 4.53969 21.2709C4.43681 20.9945 4.41769 20.6939 4.48471 20.4067L5.7494 14.9186L1.52033 11.2229C1.29665 11.03 1.13491 10.7754 1.05539 10.4909C0.975861 10.2064 0.982096 9.9048 1.07331 9.62385C1.16452 9.34291 1.33665 9.09515 1.56811 8.91164C1.79957 8.72813 2.08005 8.61705 2.3744 8.59231L7.94877 8.1095L10.1247 2.9195C10.2383 2.64717 10.43 2.41455 10.6756 2.25093C10.9211 2.08731 11.2096 2 11.5047 2C11.7998 2 12.0883 2.08731 12.3338 2.25093C12.5794 2.41455 12.7711 2.64717 12.8847 2.9195L15.0672 8.1095L20.6397 8.59231C20.9341 8.61705 21.2145 8.72813 21.446 8.91164C21.6775 9.09515 21.8496 9.34291 21.9408 9.62385C22.032 9.9048 22.0382 10.2064 21.9587 10.4909C21.8792 10.7754 21.7175 11.03 21.4938 11.2229H21.4891Z" class="fill-slate-500 flex"></path><path d="M21.4891 11.2229L17.261 14.9129L18.5275 20.4067C18.5945 20.6939 18.5754 20.9945 18.4725 21.2709C18.3697 21.5472 18.1876 21.7872 17.9491 21.9606C17.7106 22.1341 17.4262 22.2334 17.1316 22.2462C16.837 22.2589 16.5451 22.1845 16.2925 22.0323L11.501 19.1261L6.71971 22.0323C6.46712 22.1845 6.17526 22.2589 5.88062 22.2462C5.58598 22.2334 5.30164 22.1341 5.06314 21.9606C4.82464 21.7872 4.64257 21.5472 4.53969 21.2709C4.43681 20.9945 4.41769 20.6939 4.48471 20.4067L5.7494 14.9186L1.52033 11.2229C1.29665 11.03 1.13491 10.7754 1.05539 10.4909C0.975861 10.2064 0.982096 9.9048 1.07331 9.62385C1.16452 9.34291 1.33665 9.09515 1.56811 8.91164C1.79957 8.72813 2.08005 8.61705 2.3744 8.59231L7.94877 8.1095L10.1247 2.9195C10.2383 2.64717 10.43 2.41455 10.6756 2.25093C10.9211 2.08731 11.2096 2 11.5047 2C11.7998 2 12.0883 2.08731 12.3338 2.25093C12.5794 2.41455 12.7711 2.64717 12.8847 2.9195L15.0672 8.1095L20.6397 8.59231C20.9341 8.61705 21.2145 8.72813 21.446 8.91164C21.6775 9.09515 21.8496 9.34291 21.9408 9.62385C22.032 9.9048 22.0382 10.2064 21.9587 10.4909C21.8792 10.7754 21.7175 11.03 21.4938 11.2229H21.4891Z" class="fill-slate-500 flex" fill-opacity="0.2"></path><path d="M21.4891 11.2229L17.261 14.9129L18.5275 20.4067C18.5945 20.6939 18.5754 20.9945 18.4725 21.2709C18.3697 21.5472 18.1876 21.7872 17.9491 21.9606C17.7106 22.1341 17.4262 22.2334 17.1316 22.2462C16.837 22.2589 16.5451 22.1845 16.2925 22.0323L11.501 19.1261L6.71971 22.0323C6.46712 22.1845 6.17526 22.2589 5.88062 22.2462C5.58598 22.2334 5.30164 22.1341 5.06314 21.9606C4.82464 21.7872 4.64257 21.5472 4.53969 21.2709C4.43681 20.9945 4.41769 20.6939 4.48471 20.4067L5.7494 14.9186L1.52033 11.2229C1.29665 11.03 1.13491 10.7754 1.05539 10.4909C0.975861 10.2064 0.982096 9.9048 1.07331 9.62385C1.16452 9.34291 1.33665 9.09515 1.56811 8.91164C1.79957 8.72813 2.08005 8.61705 2.3744 8.59231L7.94877 8.1095L10.1247 2.9195C10.2383 2.64717 10.43 2.41455 10.6756 2.25093C10.9211 2.08731 11.2096 2 11.5047 2C11.7998 2 12.0883 2.08731 12.3338 2.25093C12.5794 2.41455 12.7711 2.64717 12.8847 2.9195L15.0672 8.1095L20.6397 8.59231C20.9341 8.61705 21.2145 8.72813 21.446 8.91164C21.6775 9.09515 21.8496 9.34291 21.9408 9.62385C22.032 9.9048 22.0382 10.2064 21.9587 10.4909C21.8792 10.7754 21.7175 11.03 21.4938 11.2229H21.4891Z" class="fill-slate-500 flex" fill-opacity="0.2"></path><path d="M21.4891 11.2229L17.261 14.9129L18.5275 20.4067C18.5945 20.6939 18.5754 20.9945 18.4725 21.2709C18.3697 21.5472 18.1876 21.7872 17.9491 21.9606C17.7106 22.1341 17.4262 22.2334 17.1316 22.2462C16.837 22.2589 16.5451 22.1845 16.2925 22.0323L11.501 19.1261L6.71971 22.0323C6.46712 22.1845 6.17526 22.2589 5.88062 22.2462C5.58598 22.2334 5.30164 22.1341 5.06314 21.9606C4.82464 21.7872 4.64257 21.5472 4.53969 21.2709C4.43681 20.9945 4.41769 20.6939 4.48471 20.4067L5.7494 14.9186L1.52033 11.2229C1.29665 11.03 1.13491 10.7754 1.05539 10.4909C0.975861 10.2064 0.982096 9.9048 1.07331 9.62385C1.16452 9.34291 1.33665 9.09515 1.56811 8.91164C1.79957 8.72813 2.08005 8.61705 2.3744 8.59231L7.94877 8.1095L10.1247 2.9195C10.2383 2.64717 10.43 2.41455 10.6756 2.25093C10.9211 2.08731 11.2096 2 11.5047 2C11.7998 2 12.0883 2.08731 12.3338 2.25093C12.5794 2.41455 12.7711 2.64717 12.8847 2.9195L15.0672 8.1095L20.6397 8.59231C20.9341 8.61705 21.2145 8.72813 21.446 8.91164C21.6775 9.09515 21.8496 9.34291 21.9408 9.62385C22.032 9.9048 22.0382 10.2064 21.9587 10.4909C21.8792 10.7754 21.7175 11.03 21.4938 11.2229H21.4891Z" class="fill-slate-500 flex" fill-opacity="0.2"></path></svg>